<svg xmlns="http://www.w3.org/2000/svg" viewBox="0 0 1112.8 837.2" width="1112.8" height="837.2" font-family="DejaVu Sans Mono, monospace">
<rect width="1112.8" height="837.2" fill="#0d1219"/>
<rect x="116.0" y="104.0" width="436.8" height="301.6" fill="#131b23" stroke="#ffb020" stroke-width="2.2"/>
<rect x="131.6" y="135.2" width="228.8" height="166.4" fill="#182029" stroke="#e6edf3" stroke-width="1.6"/>
<text x="246.0" y="117.8" fill="#e6edf3" font-size="9.5" font-family="DejaVu Sans Mono, monospace" letter-spacing="0.8" text-anchor="middle">FORNELLO 2 FUOCHI 44 × 32</text>
<circle cx="194.0" cy="218.4" r="46.8" fill="none" stroke="#ffb020" stroke-width="1.6"/>
<circle cx="194.0" cy="218.4" r="21.1" fill="none" stroke="#ffb020" stroke-width="1"/>
<circle cx="303.2" cy="218.4" r="33.8" fill="none" stroke="#ffb020" stroke-width="1.6"/>
<circle cx="303.2" cy="218.4" r="15.2" fill="none" stroke="#ffb020" stroke-width="1"/>
<rect x="376.0" y="135.2" width="166.4" height="166.4" fill="#182029" stroke="#e6edf3" stroke-width="1.6"/>
<rect x="391.6" y="150.8" width="135.2" height="109.2" fill="none" stroke="#35d0c0" stroke-width="1.4" rx="5"/>
<circle cx="459.2" cy="286.0" r="12.5" fill="none" stroke="#35d0c0" stroke-width="1.4"/>
<text x="459.2" y="117.8" fill="#e6edf3" font-size="9.5" font-family="DejaVu Sans Mono, monospace" letter-spacing="0.8" text-anchor="middle">LAVELLO 32 × 32</text>
<text x="459.2" y="212.0" fill="#35d0c0" font-size="8.5" font-family="DejaVu Sans Mono, monospace" letter-spacing="0.8" text-anchor="middle">rubinetto</text>
<text x="459.2" y="223.0" fill="#35d0c0" font-size="8.5" font-family="DejaVu Sans Mono, monospace" letter-spacing="0.8" text-anchor="middle">a scomparsa</text>
<rect x="131.6" y="322.4" width="410.8" height="72.8" fill="#182029" stroke="#e6edf3" stroke-width="1.4"/>
<text x="407.2" y="368.0" fill="#9fb3c4" font-size="9.5" font-family="DejaVu Sans Mono, monospace" letter-spacing="0.8" text-anchor="middle">PIANO DI LAVORO · prolunga ribaltabile +25</text>
<line x1="123.8" y1="114.4" x2="123.8" y2="696.8" stroke="#35d0c0" stroke-width="2.6"/>
<line x1="545.0" y1="114.4" x2="545.0" y2="696.8" stroke="#35d0c0" stroke-width="2.6"/>
<rect x="116.0" y="405.6" width="436.8" height="301.6" fill="#101820" stroke="#8fa3b5" stroke-width="1" stroke-dasharray="6 4"/>
<text x="334.4" y="556.4" fill="#9fb3c4" font-size="9.5" font-family="DejaVu Sans Mono, monospace" letter-spacing="0.8" text-anchor="middle">SEDE A RIPOSO (sotto il piano +50)</text>
<line x1="53.6" y1="405.6" x2="615.2" y2="405.6" stroke="#ffb020" stroke-width="2.5"/>
<line x1="542.4" y1="156.0" x2="586.8" y2="114.4" stroke="#ffb020" stroke-width="1"/>
<circle cx="542.4" cy="156.0" r="2.4" fill="#ffb020" stroke="none" stroke-width="1.4"/>
<text x="592.8" y="117.9" fill="#ffb020" font-size="9.5" font-family="DejaVu Sans Mono, monospace" letter-spacing="0.8" text-anchor="start">fermo di fine corsa + blocco in chiusura</text>
<line x1="542.4" y1="208.0" x2="586.8" y2="156.0" stroke="#ffb020" stroke-width="1"/>
<circle cx="542.4" cy="208.0" r="2.4" fill="#ffb020" stroke="none" stroke-width="1.4"/>
<text x="592.8" y="159.5" fill="#ffb020" font-size="9.5" font-family="DejaVu Sans Mono, monospace" letter-spacing="0.8" text-anchor="start">gas: tubo su spirale, bombola 5 kg nel vano aerato</text>
<line x1="542.4" y1="260.0" x2="586.8" y2="197.6" stroke="#35d0c0" stroke-width="1"/>
<circle cx="542.4" cy="260.0" r="2.4" fill="#35d0c0" stroke="none" stroke-width="1.4"/>
<text x="592.8" y="201.1" fill="#35d0c0" font-size="9.5" font-family="DejaVu Sans Mono, monospace" letter-spacing="0.8" text-anchor="start">acqua: innesto rapido + tubo spiralato dalla pompa</text>
<line x1="542.4" y1="301.6" x2="586.8" y2="239.2" stroke="#35d0c0" stroke-width="1"/>
<circle cx="542.4" cy="301.6" r="2.4" fill="#35d0c0" stroke="none" stroke-width="1.4"/>
<text x="592.8" y="242.7" fill="#35d0c0" font-size="9.5" font-family="DejaVu Sans Mono, monospace" letter-spacing="0.8" text-anchor="start">scarico: tanica grigie 20 L sotto il lavello, estraibile</text>
<line x1="542.4" y1="343.2" x2="586.8" y2="280.8" stroke="#35d0c0" stroke-width="1"/>
<circle cx="542.4" cy="343.2" r="2.4" fill="#35d0c0" stroke="none" stroke-width="1.4"/>
<text x="592.8" y="284.3" fill="#35d0c0" font-size="9.5" font-family="DejaVu Sans Mono, monospace" letter-spacing="0.8" text-anchor="start">presa 12 V + USB-C PD + striscia LED sotto il piano</text>
<line x1="542.4" y1="384.8" x2="586.8" y2="322.4" stroke="#9fb3c4" stroke-width="1"/>
<circle cx="542.4" cy="384.8" r="2.4" fill="#9fb3c4" stroke="none" stroke-width="1.4"/>
<text x="592.8" y="325.9" fill="#9fb3c4" font-size="9.5" font-family="DejaVu Sans Mono, monospace" letter-spacing="0.8" text-anchor="start">tagliere che copre il lavello · barra magnetica coltelli</text>
<text x="586.8" y="374.4" fill="#ffb020" font-size="9.5" font-family="DejaVu Sans Mono, monospace" letter-spacing="0.8" text-anchor="start" font-weight="600">ergonomia: piano a 98 cm da terra</text>
<text x="586.8" y="405.6" fill="#9fb3c4" font-size="9.5" font-family="DejaVu Sans Mono, monospace" letter-spacing="0.8" text-anchor="start">coperto dal tendalino posteriore 2 × 2,5 m</text>
<circle cx="199.2" cy="353.6" r="67.6" fill="none" stroke="#6c8296" stroke-width="1" stroke-dasharray="4 4"/>
<line x1="199.2" y1="353.6" x2="-60.8" y2="447.2" stroke="#6c8296" stroke-width="1"/>
<circle cx="199.2" cy="353.6" r="2.4" fill="#6c8296" stroke="none" stroke-width="1.4"/>
<text x="-54.8" y="450.7" fill="#9fb3c4" font-size="9.5" font-family="DejaVu Sans Mono, monospace" letter-spacing="0.8" text-anchor="start">bombola 5 kg nel vano aerato a pavimento</text>
<line x1="131.6" y1="58.0" x2="360.4" y2="58.0" stroke="#6c8296" stroke-width="1"/>
<line x1="129.1" y1="60.5" x2="134.1" y2="55.5" stroke="#6c8296" stroke-width="1"/>
<line x1="357.9" y1="60.5" x2="362.9" y2="55.5" stroke="#6c8296" stroke-width="1"/>
<line x1="131.6" y1="104.0" x2="131.6" y2="58.0" stroke="#6c8296" stroke-width="0.6" stroke-dasharray="2 3"/>
<line x1="360.4" y1="104.0" x2="360.4" y2="58.0" stroke="#6c8296" stroke-width="0.6" stroke-dasharray="2 3"/>
<text x="246.0" y="53.0" fill="#9fb3c4" font-size="10" font-family="DejaVu Sans Mono, monospace" letter-spacing="0.8" text-anchor="middle">44</text>
<line x1="376.0" y1="58.0" x2="542.4" y2="58.0" stroke="#6c8296" stroke-width="1"/>
<line x1="373.5" y1="60.5" x2="378.5" y2="55.5" stroke="#6c8296" stroke-width="1"/>
<line x1="539.9" y1="60.5" x2="544.9" y2="55.5" stroke="#6c8296" stroke-width="1"/>
<line x1="376.0" y1="104.0" x2="376.0" y2="58.0" stroke="#6c8296" stroke-width="0.6" stroke-dasharray="2 3"/>
<line x1="542.4" y1="104.0" x2="542.4" y2="58.0" stroke="#6c8296" stroke-width="0.6" stroke-dasharray="2 3"/>
<text x="459.2" y="53.0" fill="#9fb3c4" font-size="10" font-family="DejaVu Sans Mono, monospace" letter-spacing="0.8" text-anchor="middle">32</text>
<line x1="116.0" y1="30.0" x2="552.8" y2="30.0" stroke="#6c8296" stroke-width="1"/>
<line x1="113.5" y1="32.5" x2="118.5" y2="27.5" stroke="#6c8296" stroke-width="1"/>
<line x1="550.3" y1="32.5" x2="555.3" y2="27.5" stroke="#6c8296" stroke-width="1"/>
<text x="334.4" y="25.0" fill="#9fb3c4" font-size="10" font-family="DejaVu Sans Mono, monospace" letter-spacing="0.8" text-anchor="middle">85  (largh. blocco)</text>
<line x1="86.0" y1="104.0" x2="86.0" y2="405.6" stroke="#6c8296" stroke-width="1"/>
<line x1="83.5" y1="106.5" x2="88.5" y2="101.5" stroke="#6c8296" stroke-width="1"/>
<line x1="83.5" y1="408.1" x2="88.5" y2="403.1" stroke="#6c8296" stroke-width="1"/>
<line x1="116.0" y1="104.0" x2="86.0" y2="104.0" stroke="#6c8296" stroke-width="0.6" stroke-dasharray="2 3"/>
<line x1="116.0" y1="405.6" x2="86.0" y2="405.6" stroke="#6c8296" stroke-width="0.6" stroke-dasharray="2 3"/>
<text x="81.0" y="254.8" fill="#9fb3c4" font-size="10" font-family="DejaVu Sans Mono, monospace" letter-spacing="0.8" text-anchor="middle" transform="rotate(-90 81.0 254.8)">60  (prof.)</text>
<line x1="86.0" y1="405.6" x2="86.0" y2="707.2" stroke="#6c8296" stroke-width="1"/>
<line x1="83.5" y1="408.1" x2="88.5" y2="403.1" stroke="#6c8296" stroke-width="1"/>
<line x1="83.5" y1="709.7" x2="88.5" y2="704.7" stroke="#6c8296" stroke-width="1"/>
<line x1="116.0" y1="405.6" x2="86.0" y2="405.6" stroke="#6c8296" stroke-width="0.6" stroke-dasharray="2 3"/>
<line x1="116.0" y1="707.2" x2="86.0" y2="707.2" stroke="#6c8296" stroke-width="0.6" stroke-dasharray="2 3"/>
<text x="81.0" y="556.4" fill="#9fb3c4" font-size="10" font-family="DejaVu Sans Mono, monospace" letter-spacing="0.8" text-anchor="middle" transform="rotate(-90 81.0 556.4)">60  (corsa)</text>
<line x1="116.0" y1="797.2" x2="376.0" y2="797.2" stroke="#9fb3c4" stroke-width="1.4"/>
<rect x="116.0" y="793.2" width="130.0" height="8.0" fill="#9fb3c4" stroke="#9fb3c4" stroke-width="1"/>
<line x1="116.0" y1="793.2" x2="116.0" y2="801.2" stroke="#9fb3c4" stroke-width="1.4"/>
<line x1="246.0" y1="793.2" x2="246.0" y2="801.2" stroke="#9fb3c4" stroke-width="1.4"/>
<line x1="376.0" y1="793.2" x2="376.0" y2="801.2" stroke="#9fb3c4" stroke-width="1.4"/>
<text x="116.0" y="813.2" fill="#9fb3c4" font-size="9" font-family="DejaVu Sans Mono, monospace" letter-spacing="0.8" text-anchor="start">0</text>
<text x="246.0" y="813.2" fill="#9fb3c4" font-size="9" font-family="DejaVu Sans Mono, monospace" letter-spacing="0.8" text-anchor="middle">25</text>
<text x="376.0" y="813.2" fill="#9fb3c4" font-size="9" font-family="DejaVu Sans Mono, monospace" letter-spacing="0.8" text-anchor="end">50 cm</text>
<rect x="758.8" y="753.2" width="330.0" height="64.0" fill="#131b23" stroke="#6c8296" stroke-width="1.2"/>
<line x1="758.8" y1="777.2" x2="1088.8" y2="777.2" stroke="#6c8296" stroke-width="1"/>
<text x="768.8" y="769.2" fill="#ffb020" font-size="11.5" font-family="DejaVu Sans Mono, monospace" letter-spacing="1.6" text-anchor="start" font-weight="700">TAV. 4 — CUCINA ESTRAIBILE</text>
<text x="768.8" y="792.2" fill="#9fb3c4" font-size="8.6" font-family="DejaVu Sans Mono, monospace" letter-spacing="0.4" text-anchor="start">blocco estratto — guide 120 cm, portata 120 kg</text>
<text x="768.8" y="806.2" fill="#6c8296" font-size="9" font-family="DejaVu Sans Mono, monospace" letter-spacing="0.8" text-anchor="start">CYBER CRUISER · PRADO 90/95 · quote in cm · rev. C</text>
</svg>